ffmpeg started on 2025-06-05 at 20:15:13
Report written to "D:\Convert\FFMetrics\reports\ssim_report-6.txt"
Log level: 32
Command line:
ffmpeg -hide_banner -nostdin -i "G:\\\xc0\xed\xe8\xec\xe5\\\xce\xed\xe3\xee\xe8\xed\xe3\xe8\\!_36_\xce\xf1\xe5\xed\xfc_2024\\DreamCast\\\xcd\xe5\xe3\xe0\xf2\xe8\xe2\xed\xfb\xe9 \xef\xee\xe7\xe8\xf2\xe8\xe2\xed\xfb\xe9 \xf0\xfb\xe1\xe0\xea\\[DC] NegaPosi Angler - 04_Telegram_HEVC.mkv" -i "G:\\\xc0\xed\xe8\xec\xe5\\\xce\xed\xe3\xee\xe8\xed\xe3\xe8\\!_36_\xce\xf1\xe5\xed\xfc_2024\\DreamCast\\\xcd\xe5\xe3\xe0\xf2\xe8\xe2\xed\xfb\xe9 \xef\xee\xe7\xe8\xf2\xe8\xe2\xed\xfb\xe9 \xf0\xfb\xe1\xe0\xea\\[DC] NegaPosi Angler - 04_Telegram.mp4" -lavfi "[0:v]settb=AVTB,setpts=PTS-STARTPTS,format=pix_fmts=yuv420p10,fps=24000/1001,scale=1920:1080:flags=bicubic[main];[1:v]settb=AVTB,setpts=PTS-STARTPTS,format=pix_fmts=yuv420p,fps=24000/1001,scale=1920:1080:flags=bicubic[ref];[main][ref]ssim=eof_action=endall:stats_file='D\\:/Convert/FFMetrics/logs/ssim_logfile-6.txt'" -f null -
Input #0, matroska,webm, from 'G:\Аниме\Онгоинги\!_36_Осень_2024\DreamCast\Негативный позитивный рыбак\[DC] NegaPosi Angler - 04_Telegram_HEVC.mkv':
  Metadata:
    COMPATIBLE_BRANDS: isomiso2avc1mp41
    MAJOR_BRAND     : isom
    MINOR_VERSION   : 512
    ENCODER         : Lavf61.7.100
  Duration: 00:23:46.73, start: -0.021000, bitrate: 935 kb/s
  Stream #0:0: Video: hevc (Main 10), yuv420p10le(tv, bt709, progressive), 1920x1080 [SAR 1:1 DAR 16:9], 23.98 fps, 23.98 tbr, 1k tbn (default)
      Metadata:
        HANDLER_NAME    : VideoHandler
        VENDOR_ID       : [0][0][0][0]
        ENCODER         : Lavc61.19.100 libx265
        BPS             : 738305
        DURATION        : 00:23:46.549708333
        NUMBER_OF_FRAMES: 34203
        NUMBER_OF_BYTES : 131653561
        _STATISTICS_WRITING_APP: mkvpropedit v66.0.0 ('Josie') 64-bit
        _STATISTICS_WRITING_DATE_UTC: 2025-05-31 12:56:40
        _STATISTICS_TAGS: BPS DURATION NUMBER_OF_FRAMES NUMBER_OF_BYTES
  Stream #0:1: Audio: aac (LC), 48000 Hz, stereo, fltp (default)
      Metadata:
        HANDLER_NAME    : SoundHandler
        VENDOR_ID       : [0][0][0][0]
        ENCODER         : Lavc61.19.100 aac
        BPS             : 193412
        DURATION        : 00:23:46.730000000
        NUMBER_OF_FRAMES: 66879
        NUMBER_OF_BYTES : 34493435
        _STATISTICS_WRITING_APP: mkvpropedit v66.0.0 ('Josie') 64-bit
        _STATISTICS_WRITING_DATE_UTC: 2025-05-31 12:56:40
        _STATISTICS_TAGS: BPS DURATION NUMBER_OF_FRAMES NUMBER_OF_BYTES
Input #1, mov,mp4,m4a,3gp,3g2,mj2, from 'G:\Аниме\Онгоинги\!_36_Осень_2024\DreamCast\Негативный позитивный рыбак\[DC] NegaPosi Angler - 04_Telegram.mp4':
  Metadata:
    major_brand     : isom
    minor_version   : 512
    compatible_brands: isomiso2avc1mp41
    encoder         : Lavf61.1.100
  Duration: 00:23:46.68, start: 0.000000, bitrate: 3768 kb/s
  Stream #1:0[0x1](und): Video: h264 (High) (avc1 / 0x31637661), yuv420p(tv, bt709, progressive), 1920x1080 [SAR 1:1 DAR 16:9], 3620 kb/s, 23.98 fps, 23.98 tbr, 24k tbn (default)
      Metadata:
        handler_name    : VideoHandler
        vendor_id       : [0][0][0][0]
        encoder         : Lavc61.3.100 h264_qsv
  Stream #1:1[0x2](und): Audio: aac (HE-AACv2) (mp4a / 0x6134706D), 48000 Hz, stereo, fltp, 144 kb/s (default)
      Metadata:
        handler_name    : SoundHandler
        vendor_id       : [0][0][0][0]
Stream mapping:
  Stream #0:0 (hevc) -> settb:default
  Stream #1:0 (h264) -> settb:default
  ssim:default -> Stream #0:0 (wrapped_avframe)
  Stream #0:1 -> #0:1 (aac (native) -> pcm_s16le (native))
Output #0, null, to 'pipe:':
  Metadata:
    COMPATIBLE_BRANDS: isomiso2avc1mp41
    MAJOR_BRAND     : isom
    MINOR_VERSION   : 512
    encoder         : Lavf61.7.100
  Stream #0:0: Video: wrapped_avframe, yuv420p10le(tv, bt709, progressive), 1920x1080 [SAR 1:1 DAR 16:9], q=2-31, 200 kb/s, 23.98 fps, 23.98 tbn
      Metadata:
        encoder         : Lavc61.19.100 wrapped_avframe
  Stream #0:1: Audio: pcm_s16le, 48000 Hz, stereo, s16, 1536 kb/s (default)
      Metadata:
        HANDLER_NAME    : SoundHandler
        VENDOR_ID       : [0][0][0][0]
        _STATISTICS_TAGS: BPS DURATION NUMBER_OF_FRAMES NUMBER_OF_BYTES
        BPS             : 193412
        DURATION        : 00:23:46.730000000
        NUMBER_OF_FRAMES: 66879
        NUMBER_OF_BYTES : 34493435
        _STATISTICS_WRITING_APP: mkvpropedit v66.0.0 ('Josie') 64-bit
        _STATISTICS_WRITING_DATE_UTC: 2025-05-31 12:56:40
        encoder         : Lavc61.19.100 pcm_s16le
frame=  170 fps=0.0 q=-0.0 size=N/A time=00:00:07.09 bitrate=N/A speed=14.1x    frame=  404 fps=393 q=-0.0 size=N/A time=00:00:16.85 bitrate=N/A speed=16.4x    frame=  635 fps=414 q=-0.0 size=N/A time=00:00:26.48 bitrate=N/A speed=17.3x    frame=  873 fps=424 q=-0.0 size=N/A time=00:00:36.41 bitrate=N/A speed=17.7x    frame= 1083 fps=422 q=-0.0 size=N/A time=00:00:45.17 bitrate=N/A speed=17.6x    frame= 1353 fps=438 q=-0.0 size=N/A time=00:00:56.43 bitrate=N/A speed=18.3x    frame= 1615 fps=447 q=-0.0 size=N/A time=00:01:07.35 bitrate=N/A speed=18.7x    frame= 1873 fps=454 q=-0.0 size=N/A time=00:01:18.11 bitrate=N/A speed=18.9x    frame= 2090 fps=449 q=-0.0 size=N/A time=00:01:27.17 bitrate=N/A speed=18.7x    frame= 2290 fps=444 q=-0.0 size=N/A time=00:01:35.51 bitrate=N/A speed=18.5x    frame= 2443 fps=430 q=-0.0 size=N/A time=00:01:41.89 bitrate=N/A speed=17.9x    frame= 2658 fps=429 q=-0.0 size=N/A time=00:01:50.86 bitrate=N/A speed=17.9x    frame= 2904 fps=432 q=-0.0 size=N/A time=00:02:01.12 bitrate=N/A speed=  18x    frame= 3165 fps=438 q=-0.0 size=N/A time=00:02:12.00 bitrate=N/A speed=18.3x    frame= 3398 fps=439 q=-0.0 size=N/A time=00:02:21.72 bitrate=N/A speed=18.3x    frame= 3660 fps=444 q=-0.0 size=N/A time=00:02:32.65 bitrate=N/A speed=18.5x    frame= 3914 fps=446 q=-0.0 size=N/A time=00:02:43.24 bitrate=N/A speed=18.6x    frame= 4154 fps=448 q=-0.0 size=N/A time=00:02:53.25 bitrate=N/A speed=18.7x    frame= 4416 fps=450 q=-0.0 size=N/A time=00:03:04.18 bitrate=N/A speed=18.8x    frame= 4659 fps=452 q=-0.0 size=N/A time=00:03:14.31 bitrate=N/A speed=18.8x    frame= 4927 fps=455 q=-0.0 size=N/A time=00:03:25.49 bitrate=N/A speed=  19x    frame= 5181 fps=456 q=-0.0 size=N/A time=00:03:36.09 bitrate=N/A speed=  19x    frame= 5454 fps=459 q=-0.0 size=N/A time=00:03:47.47 bitrate=N/A speed=19.1x    frame= 5721 fps=461 q=-0.0 size=N/A time=00:03:58.61 bitrate=N/A speed=19.2x    frame= 5997 fps=464 q=-0.0 size=N/A time=00:04:10.12 bitrate=N/A speed=19.3x    frame= 6220 fps=463 q=-0.0 size=N/A time=00:04:19.42 bitrate=N/A speed=19.3x    frame= 6445 fps=462 q=-0.0 size=N/A time=00:04:28.81 bitrate=N/A speed=19.3x    frame= 6694 fps=463 q=-0.0 size=N/A time=00:04:39.19 bitrate=N/A speed=19.3x    frame= 6930 fps=462 q=-0.0 size=N/A time=00:04:49.03 bitrate=N/A speed=19.3x    frame= 7181 fps=463 q=-0.0 size=N/A time=00:04:59.50 bitrate=N/A speed=19.3x    frame= 7431 fps=464 q=-0.0 size=N/A time=00:05:09.93 bitrate=N/A speed=19.4x    frame= 7640 fps=462 q=-0.0 size=N/A time=00:05:18.65 bitrate=N/A speed=19.3x    frame= 7904 fps=463 q=-0.0 size=N/A time=00:05:29.66 bitrate=N/A speed=19.3x    frame= 8147 fps=464 q=-0.0 size=N/A time=00:05:39.79 bitrate=N/A speed=19.3x    frame= 8383 fps=464 q=-0.0 size=N/A time=00:05:49.64 bitrate=N/A speed=19.3x    frame= 8641 fps=465 q=-0.0 size=N/A time=00:06:00.40 bitrate=N/A speed=19.4x    frame= 8877 fps=465 q=-0.0 size=N/A time=00:06:10.24 bitrate=N/A speed=19.4x    frame= 9107 fps=464 q=-0.0 size=N/A time=00:06:19.83 bitrate=N/A speed=19.3x    frame= 9307 fps=462 q=-0.0 size=N/A time=00:06:28.17 bitrate=N/A speed=19.3x    frame= 9559 fps=462 q=-0.0 size=N/A time=00:06:38.68 bitrate=N/A speed=19.3x    frame= 9813 fps=463 q=-0.0 size=N/A time=00:06:49.28 bitrate=N/A speed=19.3x    frame=10059 fps=463 q=-0.0 size=N/A time=00:06:59.54 bitrate=N/A speed=19.3x    frame=10323 fps=465 q=-0.0 size=N/A time=00:07:10.55 bitrate=N/A speed=19.4x    frame=10600 fps=466 q=-0.0 size=N/A time=00:07:22.10 bitrate=N/A speed=19.4x    frame=10838 fps=466 q=-0.0 size=N/A time=00:07:32.03 bitrate=N/A speed=19.4x    frame=11087 fps=466 q=-0.0 size=N/A time=00:07:42.42 bitrate=N/A speed=19.4x    frame=11324 fps=466 q=-0.0 size=N/A time=00:07:52.30 bitrate=N/A speed=19.5x    frame=11577 fps=467 q=-0.0 size=N/A time=00:08:02.85 bitrate=N/A speed=19.5x    frame=11750 fps=464 q=-0.0 size=N/A time=00:08:10.07 bitrate=N/A speed=19.4x    frame=12005 fps=465 q=-0.0 size=N/A time=00:08:20.70 bitrate=N/A speed=19.4x    frame=12273 fps=466 q=-0.0 size=N/A time=00:08:31.88 bitrate=N/A speed=19.4x    frame=12551 fps=467 q=-0.0 size=N/A time=00:08:43.48 bitrate=N/A speed=19.5x    frame=12827 fps=469 q=-0.0 size=N/A time=00:08:54.99 bitrate=N/A speed=19.5x    frame=13100 fps=470 q=-0.0 size=N/A time=00:09:06.37 bitrate=N/A speed=19.6x    frame=13363 fps=470 q=-0.0 size=N/A time=00:09:17.34 bitrate=N/A speed=19.6x    frame=13627 fps=471 q=-0.0 size=N/A time=00:09:28.35 bitrate=N/A speed=19.6x    frame=13840 fps=470 q=-0.0 size=N/A time=00:09:37.24 bitrate=N/A speed=19.6x    frame=14059 fps=469 q=-0.0 size=N/A time=00:09:46.37 bitrate=N/A speed=19.6x    frame=14316 fps=470 q=-0.0 size=N/A time=00:09:57.09 bitrate=N/A speed=19.6x    frame=14565 fps=470 q=-0.0 size=N/A time=00:10:07.48 bitrate=N/A speed=19.6x    frame=14792 fps=469 q=-0.0 size=N/A time=00:10:16.94 bitrate=N/A speed=19.6x    frame=15012 fps=469 q=-0.0 size=N/A time=00:10:26.12 bitrate=N/A speed=19.5x    frame=15239 fps=468 q=-0.0 size=N/A time=00:10:35.59 bitrate=N/A speed=19.5x    frame=15482 fps=468 q=-0.0 size=N/A time=00:10:45.72 bitrate=N/A speed=19.5x    frame=15732 fps=468 q=-0.0 size=N/A time=00:10:56.15 bitrate=N/A speed=19.5x    frame=16001 fps=469 q=-0.0 size=N/A time=00:11:07.41 bitrate=N/A speed=19.6x    frame=16247 fps=469 q=-0.0 size=N/A time=00:11:17.63 bitrate=N/A speed=19.6x    frame=16516 fps=470 q=-0.0 size=N/A time=00:11:28.85 bitrate=N/A speed=19.6x    frame=16760 fps=470 q=-0.0 size=N/A time=00:11:39.03 bitrate=N/A speed=19.6x    frame=17034 fps=471 q=-0.0 size=N/A time=00:11:50.45 bitrate=N/A speed=19.6x    frame=17274 fps=471 q=-0.0 size=N/A time=00:12:00.46 bitrate=N/A speed=19.6x    frame=17521 fps=471 q=-0.0 size=N/A time=00:12:10.77 bitrate=N/A speed=19.6x    frame=17778 fps=471 q=-0.0 size=N/A time=00:12:21.49 bitrate=N/A speed=19.7x    frame=18032 fps=472 q=-0.0 size=N/A time=00:12:32.08 bitrate=N/A speed=19.7x    frame=18248 fps=471 q=-0.0 size=N/A time=00:12:41.09 bitrate=N/A speed=19.6x    frame=18467 fps=470 q=-0.0 size=N/A time=00:12:50.22 bitrate=N/A speed=19.6x    frame=18727 fps=471 q=-0.0 size=N/A time=00:13:01.07 bitrate=N/A speed=19.6x    frame=18972 fps=471 q=-0.0 size=N/A time=00:13:11.29 bitrate=N/A speed=19.6x    frame=19210 fps=471 q=-0.0 size=N/A time=00:13:21.21 bitrate=N/A speed=19.6x    frame=19462 fps=471 q=-0.0 size=N/A time=00:13:31.72 bitrate=N/A speed=19.6x    frame=19692 fps=471 q=-0.0 size=N/A time=00:13:41.32 bitrate=N/A speed=19.6x    frame=19917 fps=470 q=-0.0 size=N/A time=00:13:50.70 bitrate=N/A speed=19.6x    frame=20176 fps=471 q=-0.0 size=N/A time=00:14:01.50 bitrate=N/A speed=19.6x    frame=20434 fps=471 q=-0.0 size=N/A time=00:14:12.26 bitrate=N/A speed=19.6x    frame=20655 fps=470 q=-0.0 size=N/A time=00:14:21.48 bitrate=N/A speed=19.6x    frame=20863 fps=470 q=-0.0 size=N/A time=00:14:30.16 bitrate=N/A speed=19.6x    frame=21090 fps=469 q=-0.0 size=N/A time=00:14:39.62 bitrate=N/A speed=19.6x    frame=21323 fps=469 q=-0.0 size=N/A time=00:14:49.34 bitrate=N/A speed=19.6x    frame=21559 fps=469 q=-0.0 size=N/A time=00:14:59.18 bitrate=N/A speed=19.6x    frame=21794 fps=469 q=-0.0 size=N/A time=00:15:08.99 bitrate=N/A speed=19.6x    frame=22003 fps=468 q=-0.0 size=N/A time=00:15:17.70 bitrate=N/A speed=19.5x    frame=22182 fps=467 q=-0.0 size=N/A time=00:15:25.17 bitrate=N/A speed=19.5x    frame=22400 fps=466 q=-0.0 size=N/A time=00:15:34.26 bitrate=N/A speed=19.5x    frame=22625 fps=466 q=-0.0 size=N/A time=00:15:43.65 bitrate=N/A speed=19.4x    frame=22845 fps=466 q=-0.0 size=N/A time=00:15:52.82 bitrate=N/A speed=19.4x    frame=23092 fps=466 q=-0.0 size=N/A time=00:16:03.12 bitrate=N/A speed=19.4x    frame=23327 fps=466 q=-0.0 size=N/A time=00:16:12.93 bitrate=N/A speed=19.4x    frame=23579 fps=466 q=-0.0 size=N/A time=00:16:23.44 bitrate=N/A speed=19.4x    frame=23820 fps=466 q=-0.0 size=N/A time=00:16:33.49 bitrate=N/A speed=19.4x    frame=24081 fps=466 q=-0.0 size=N/A time=00:16:44.37 bitrate=N/A speed=19.5x    frame=24333 fps=467 q=-0.0 size=N/A time=00:16:54.88 bitrate=N/A speed=19.5x    frame=24565 fps=466 q=-0.0 size=N/A time=00:17:04.56 bitrate=N/A speed=19.5x    frame=24782 fps=466 q=-0.0 size=N/A time=00:17:13.61 bitrate=N/A speed=19.4x    frame=25022 fps=466 q=-0.0 size=N/A time=00:17:23.62 bitrate=N/A speed=19.4x    frame=25279 fps=466 q=-0.0 size=N/A time=00:17:34.34 bitrate=N/A speed=19.4x    frame=25518 fps=466 q=-0.0 size=N/A time=00:17:44.31 bitrate=N/A speed=19.4x    frame=25779 fps=467 q=-0.0 size=N/A time=00:17:55.19 bitrate=N/A speed=19.5x    frame=26052 fps=467 q=-0.0 size=N/A time=00:18:06.58 bitrate=N/A speed=19.5x    frame=26274 fps=467 q=-0.0 size=N/A time=00:18:15.84 bitrate=N/A speed=19.5x    frame=26454 fps=466 q=-0.0 size=N/A time=00:18:23.35 bitrate=N/A speed=19.4x    frame=26710 fps=466 q=-0.0 size=N/A time=00:18:34.02 bitrate=N/A speed=19.4x    frame=26957 fps=466 q=-0.0 size=N/A time=00:18:44.33 bitrate=N/A speed=19.4x    frame=27208 fps=466 q=-0.0 size=N/A time=00:18:54.80 bitrate=N/A speed=19.5x    frame=27455 fps=467 q=-0.0 size=N/A time=00:19:05.10 bitrate=N/A speed=19.5x    frame=27713 fps=467 q=-0.0 size=N/A time=00:19:15.86 bitrate=N/A speed=19.5x    frame=27971 fps=467 q=-0.0 size=N/A time=00:19:26.62 bitrate=N/A speed=19.5x    frame=28200 fps=467 q=-0.0 size=N/A time=00:19:36.17 bitrate=N/A speed=19.5x    frame=28435 fps=467 q=-0.0 size=N/A time=00:19:45.97 bitrate=N/A speed=19.5x    frame=28690 fps=467 q=-0.0 size=N/A time=00:19:56.61 bitrate=N/A speed=19.5x    frame=28914 fps=467 q=-0.0 size=N/A time=00:20:05.95 bitrate=N/A speed=19.5x    frame=29142 fps=467 q=-0.0 size=N/A time=00:20:15.46 bitrate=N/A speed=19.5x    frame=29370 fps=466 q=-0.0 size=N/A time=00:20:24.97 bitrate=N/A speed=19.4x    frame=29610 fps=466 q=-0.0 size=N/A time=00:20:34.98 bitrate=N/A speed=19.5x    frame=29868 fps=467 q=-0.0 size=N/A time=00:20:45.74 bitrate=N/A speed=19.5x    frame=30132 fps=467 q=-0.0 size=N/A time=00:20:56.75 bitrate=N/A speed=19.5x    frame=30412 fps=468 q=-0.0 size=N/A time=00:21:08.43 bitrate=N/A speed=19.5x    frame=30682 fps=468 q=-0.0 size=N/A time=00:21:19.69 bitrate=N/A speed=19.5x    frame=30941 fps=468 q=-0.0 size=N/A time=00:21:30.49 bitrate=N/A speed=19.5x    frame=31192 fps=468 q=-0.0 size=N/A time=00:21:40.96 bitrate=N/A speed=19.5x    frame=31466 fps=469 q=-0.0 size=N/A time=00:21:52.39 bitrate=N/A speed=19.6x    frame=31693 fps=469 q=-0.0 size=N/A time=00:22:01.86 bitrate=N/A speed=19.6x    frame=31945 fps=469 q=-0.0 size=N/A time=00:22:12.37 bitrate=N/A speed=19.6x    frame=32198 fps=469 q=-0.0 size=N/A time=00:22:22.92 bitrate=N/A speed=19.6x    frame=32457 fps=469 q=-0.0 size=N/A time=00:22:33.72 bitrate=N/A speed=19.6x    frame=32711 fps=469 q=-0.0 size=N/A time=00:22:44.32 bitrate=N/A speed=19.6x    frame=32990 fps=470 q=-0.0 size=N/A time=00:22:55.95 bitrate=N/A speed=19.6x    frame=33226 fps=470 q=-0.0 size=N/A time=00:23:05.80 bitrate=N/A speed=19.6x    frame=33454 fps=470 q=-0.0 size=N/A time=00:23:15.31 bitrate=N/A speed=19.6x    frame=33677 fps=469 q=-0.0 size=N/A time=00:23:24.61 bitrate=N/A speed=19.6x    frame=33899 fps=469 q=-0.0 size=N/A time=00:23:33.87 bitrate=N/A speed=19.6x    frame=34169 fps=470 q=-0.0 size=N/A time=00:23:45.13 bitrate=N/A speed=19.6x    [Parsed_ssim_10 @ 0000023e33c31a80] SSIM Y:0.994358 (22.485823) U:0.993660 (21.979196) V:0.993912 (22.155351) All:0.994168 (22.341460)
[out#0/null @ 0000023e33be4c00] video:14697KiB audio:267516KiB subtitle:0KiB other streams:0KiB global headers:0KiB muxing overhead: unknown
frame=34203 fps=470 q=-0.0 Lsize=N/A time=00:23:46.55 bitrate=N/A speed=19.6x    
